<svg width="0" height="0" class="hidden">
  <symbol xmlns="http://www.w3.org/2000/svg" xml:space="preserve" viewBox="0 0 100.409 100.41" id="amblem">
    <path fill="currentColor" d="m62.521 0 14.76 45.436h47.776L86.409 73.51l14.76 45.436-38.648-28.09-38.647 28.09L38.647 73.51 0 45.436h47.762L62.521 0z"/>
  </symbol>
  <symbol xmlns="http://www.w3.org/2000/svg" viewBox="0 353.473 595.28 134.942" xml:space="preserve" id="logo">
<path fill="#DE0000" d="m367.982 353.473 6.412 19.741h20.754l-16.793 12.198 6.42 19.742-16.793-12.205-16.793 12.205 6.412-19.742-16.793-12.198h20.76z"/>
<path fill="currentColor" d="m196.09 458.795 5.29 27.24h-33.59l-2.32-14.21c-3.49 5.521-7.66 9.63-12.56 12.36-4.89 2.729-10.2 4.1-15.93 4.1-7.14 0-13.27-1.47-18.38-4.43-5.11-2.95-9.01-7.09-11.7-12.43-2.69-5.33-4.03-11.521-4.03-18.58v-42.84h33.58v38.08c0 4.15 1.08 7.37 3.24 9.65 2.16 2.3 5.22 3.44 9.19 3.44 3.09 0 5.62-.551 7.6-1.65 1.99-1.1 3.49-2.78 4.5-5.021 1.01-2.25 1.52-5 1.52-8.27v-36.23h33.59v48.791zM80.86 391.295c-6.4-2.95-14.09-4.43-23.08-4.43H0v99.17h34.11v-26.97h23.67c8.99 0 16.68-1.48 23.08-4.43 6.38-2.95 11.26-7.141 14.61-12.561 3.34-5.42 5.02-11.79 5.02-19.11 0-7.319-1.68-13.689-5.02-19.109-3.35-5.419-8.23-9.6-14.61-12.56zm-17.52 38.681c-1.85 1.68-4.46 2.51-7.8 2.51H34.11v-19.04h21.43c3.34 0 5.95.82 7.8 2.45 1.85 1.63 2.77 3.99 2.77 7.069 0 3.08-.92 5.33-2.77 7.011zM287.85 412.655c-5.55-3.35-12.08-5.03-19.57-5.03s-13.53 1.65-19.17 4.96c-3.97 2.33-7.41 5.34-10.31 9.02v-37.38h-33.59v101.81h33.59v-11.76c2.86 3.72 6.28 6.75 10.24 9.12 5.6 3.35 12.02 5.02 19.24 5.02 7.23 0 14.02-1.67 19.57-5.02 5.56-3.351 9.9-8.07 13.03-14.15 3.12-6.08 4.689-13.13 4.689-21.16 0-8.02-1.569-15.199-4.689-21.29-3.13-6.08-7.47-10.79-13.03-14.14zm-17.92 43.17a13.613 13.613 0 0 1-5.02 5.351c-2.16 1.329-4.65 1.989-7.47 1.989-2.82 0-5.73-.66-8.46-1.989a23.017 23.017 0 0 1-7.14-5.351 20.11 20.11 0 0 1-4.37-7.74c.88-2.909 2.34-5.5 4.37-7.8 2.03-2.29 4.41-4.1 7.14-5.42s5.55-1.979 8.46-1.979c2.91 0 5.31.659 7.47 1.979s3.83 3.13 5.02 5.42c1.2 2.3 1.79 4.891 1.79 7.8 0 2.91-.59 5.49-1.79 7.74zM310.2 384.225h33.58v101.81H310.2zM367.98 411.896l16.79-3.441v77.62h-33.58v-77.62zM470.96 428.226l34.411 57.809H466.76l-17.25-30.99-24.8 30.99h-30.95v-99.17h33.861v53.941l40.719-53.941h35.701z"/>
<path fill="currentColor" d="M589 426.795c-4.19-6.08-10.051-10.79-17.591-14.14-7.529-3.36-16.329-5.03-26.38-5.03-10.05 0-18.84 1.67-26.38 5.03-7.529 3.35-13.399 8.06-17.58 14.14-4.189 6.091-6.279 13.271-6.279 21.29 0 8.021 2.09 15.08 6.279 21.16 4.181 6.08 10.051 10.8 17.58 14.15 7.54 3.35 16.33 5.02 26.38 5.02 10.051 0 18.851-1.67 26.38-5.02 7.54-3.351 13.4-8.07 17.591-14.15 4.18-6.08 6.279-13.05 6.279-21.16.001-8.109-2.099-15.199-6.279-21.29zm-29.49 29.891c-1.271 2.38-3.12 4.18-5.55 5.42-2.431 1.24-5.4 1.85-8.931 1.85-3.43 0-6.39-.609-8.85-1.85-2.47-1.24-4.35-3.04-5.63-5.42-1.271-2.38-1.91-5.16-1.91-8.601 0-3.43.64-6.34 1.91-8.72 1.28-2.38 3.16-4.189 5.63-5.43 2.46-1.23 5.33-1.851 8.85-1.851 3.53 0 6.5.62 8.931 1.851 2.43 1.24 4.279 3.05 5.55 5.43 1.28 2.38 1.92 5.37 1.92 8.72 0 3.36-.639 6.221-1.92 8.601z"/>
</symbol>
  <symbol xmlns="http://www.w3.org/2000/svg" viewBox="0 0 512 512" id="facebook">
    <path fill="currentColor" d="M504 256C504 119 393 8 256 8S8 119 8 256c0 123.78 90.69 226.38 209.25 245V327.69h-63V256h63v-54.64c0-62.15 37-96.48 93.67-96.48 27.14 0 55.52 4.84 55.52 4.84v61h-31.28c-30.8 0-40.41 19.12-40.41 38.73V256h68.78l-11 71.69h-57.78V501C413.31 482.38 504 379.78 504 256z"></path>
  </symbol>
  <symbol  viewBox="0 0 1092 286" xmlns="http://www.w3.org/2000/svg" id="ds4n">
<path d="M97.6 4C126.933 4 152.667 9.73333 174.8 21.2C197.2 32.6667 214.4 49.0667 226.4 70.4C238.667 91.4667 244.8 116 244.8 144C244.8 172 238.667 196.533 226.4 217.6C214.4 238.4 197.2 254.533 174.8 266C152.667 277.467 126.933 283.2 97.6 283.2H0V4H97.6ZM95.6 235.6C124.933 235.6 147.6 227.6 163.6 211.6C179.6 195.6 187.6 173.067 187.6 144C187.6 114.933 179.6 92.2667 163.6 76C147.6 59.4667 124.933 51.2 95.6 51.2H56V235.6H95.6Z" fill="currentColor"/>
<path d="M403.119 286C383.652 286 366.052 282.667 350.319 276C334.852 269.333 322.585 259.733 313.519 247.2C304.452 234.667 299.785 219.867 299.519 202.8H359.519C360.319 214.267 364.319 223.333 371.519 230C378.985 236.667 389.119 240 401.919 240C414.985 240 425.252 236.933 432.719 230.8C440.185 224.4 443.919 216.133 443.919 206C443.919 197.733 441.385 190.933 436.319 185.6C431.252 180.267 424.852 176.133 417.119 173.2C409.652 170 399.252 166.533 385.919 162.8C367.785 157.467 352.985 152.267 341.519 147.2C330.319 141.867 320.585 134 312.319 123.6C304.319 112.933 300.319 98.8 300.319 81.2C300.319 64.6667 304.452 50.2667 312.719 38C320.985 25.7333 332.585 16.4 347.519 9.99999C362.452 3.33333 379.519 0 398.719 0C427.519 0 450.852 7.06666 468.719 21.2C486.852 35.0667 496.852 54.5333 498.719 79.6H437.119C436.585 70 432.452 62.1333 424.719 56C417.252 49.6 407.252 46.4 394.719 46.4C383.785 46.4 374.985 49.2 368.319 54.8C361.919 60.4 358.719 68.5333 358.719 79.2C358.719 86.6667 361.119 92.9333 365.919 98C370.985 102.8 377.119 106.8 384.319 110C391.785 112.933 402.185 116.4 415.519 120.4C433.652 125.733 448.452 131.067 459.919 136.4C471.385 141.733 481.252 149.733 489.519 160.4C497.785 171.067 501.919 185.067 501.919 202.4C501.919 217.333 498.052 231.2 490.319 244C482.585 256.8 471.252 267.067 456.319 274.8C441.385 282.267 423.652 286 403.119 286Z" fill="currentColor"/>
<path d="M692.069 226.8H555.269V179.2L683.669 3.19998H754.069V174.8H788.469V226.8H754.069V283.2H692.069V226.8ZM696.069 174.8V70.8L621.669 174.8H696.069Z" fill="currentColor"/>
<path d="M1091.38 283.2H1035.38L908.578 91.6V283.2H852.578V3.59998H908.578L1035.38 195.6V3.59998H1091.38V283.2Z" fill="currentColor"/>
</symbol>
<symbol viewBox="0 0 1092 362" xmlns="http://www.w3.org/2000/svg" id="ds4n-p">
<path d="M9.88 333.12C14.6267 333.12 18.28 334.36 20.84 336.84C23.4267 339.32 24.72 342.773 24.72 347.2C24.72 351.627 23.4267 355.067 20.84 357.52C18.28 359.973 14.6267 361.2 9.88 361.2H2V333.12H9.88ZM9.88 359.68C14.12 359.68 17.3467 358.587 19.56 356.4C21.7733 354.187 22.88 351.12 22.88 347.2C22.88 343.253 21.7733 340.173 19.56 337.96C17.3467 335.747 14.12 334.64 9.88 334.64H3.8V359.68H9.88Z" fill="currentColor"/>
<path d="M78.0841 354H64.7641L62.0841 361.2H60.1241L70.4441 333.76H72.4441L82.7241 361.2H80.7641L78.0841 354ZM77.5241 352.48L71.4441 336.12L65.3241 352.48H77.5241Z" fill="currentColor"/>
<path d="M134.762 333.12V334.64H126.762V361.2H124.962V334.64H116.962V333.12H134.762Z" fill="currentColor"/>
<path d="M186.967 354H173.647L170.967 361.2H169.007L179.327 333.76H181.327L191.607 361.2H189.647L186.967 354ZM186.407 352.48L180.327 336.12L174.207 352.48H186.407Z" fill="currentColor"/>
<path d="M279.534 361.48C277.721 361.48 276.134 361.16 274.774 360.52C273.414 359.88 272.347 359.013 271.574 357.92C270.827 356.827 270.401 355.613 270.294 354.28H272.174C272.387 355.747 273.067 357.053 274.214 358.2C275.387 359.347 277.161 359.92 279.534 359.92C280.921 359.92 282.121 359.667 283.134 359.16C284.174 358.653 284.974 357.96 285.534 357.08C286.094 356.2 286.374 355.227 286.374 354.16C286.374 352.8 286.041 351.72 285.374 350.92C284.734 350.12 283.921 349.52 282.934 349.12C281.974 348.72 280.667 348.293 279.014 347.84C277.201 347.36 275.734 346.88 274.614 346.4C273.521 345.92 272.587 345.187 271.814 344.2C271.067 343.187 270.694 341.813 270.694 340.08C270.694 338.747 271.041 337.533 271.734 336.44C272.454 335.32 273.467 334.44 274.774 333.8C276.081 333.16 277.587 332.84 279.294 332.84C281.774 332.84 283.774 333.453 285.294 334.68C286.814 335.907 287.721 337.413 288.014 339.2H286.094C285.934 338.48 285.574 337.747 285.014 337C284.481 336.253 283.707 335.64 282.694 335.16C281.707 334.653 280.521 334.4 279.134 334.4C277.267 334.4 275.694 334.92 274.414 335.96C273.134 336.973 272.494 338.333 272.494 340.04C272.494 341.4 272.827 342.493 273.494 343.32C274.161 344.12 274.974 344.733 275.934 345.16C276.921 345.56 278.241 345.973 279.894 346.4C281.734 346.907 283.187 347.4 284.254 347.88C285.347 348.333 286.267 349.067 287.014 350.08C287.787 351.067 288.174 352.413 288.174 354.12C288.174 355.373 287.841 356.56 287.174 357.68C286.507 358.8 285.521 359.72 284.214 360.44C282.934 361.133 281.374 361.48 279.534 361.48Z" fill="currentColor"/>
<path d="M324.443 347.2C324.443 344.427 325.016 341.96 326.163 339.8C327.336 337.613 328.936 335.907 330.962 334.68C333.016 333.453 335.309 332.84 337.842 332.84C341.043 332.84 343.736 333.587 345.923 335.08C348.109 336.573 349.709 338.667 350.723 341.36H348.642C347.842 339.227 346.509 337.547 344.642 336.32C342.802 335.067 340.536 334.44 337.842 334.44C335.682 334.44 333.723 334.96 331.962 336C330.202 337.013 328.816 338.493 327.802 340.44C326.789 342.36 326.283 344.613 326.283 347.2C326.283 349.76 326.789 352 327.802 353.92C328.816 355.813 330.202 357.28 331.962 358.32C333.723 359.36 335.682 359.88 337.842 359.88C340.536 359.88 342.802 359.267 344.642 358.04C346.509 356.787 347.842 355.093 348.642 352.96H350.723C349.709 355.653 348.109 357.747 345.923 359.24C343.736 360.733 341.043 361.48 337.842 361.48C335.309 361.48 333.016 360.88 330.962 359.68C328.936 358.453 327.336 356.76 326.163 354.6C325.016 352.413 324.443 349.947 324.443 347.2Z" fill="currentColor"/>
<path d="M390.144 333.12V361.2H388.344V333.12H390.144Z" fill="currentColor"/>
<path d="M430.542 334.64V346.36H441.742V347.88H430.542V359.68H442.942V361.2H428.742V333.12H442.942V334.64H430.542Z" fill="currentColor"/>
<path d="M500.471 361.2H498.671L482.191 336.08V361.2H480.391V333.16H482.191L498.671 358.2V333.16H500.471V361.2Z" fill="currentColor"/>
<path d="M537.95 347.2C537.95 344.427 538.524 341.96 539.67 339.8C540.844 337.613 542.444 335.907 544.47 334.68C546.524 333.453 548.817 332.84 551.35 332.84C554.55 332.84 557.244 333.587 559.43 335.08C561.617 336.573 563.217 338.667 564.23 341.36H562.15C561.35 339.227 560.017 337.547 558.15 336.32C556.31 335.067 554.044 334.44 551.35 334.44C549.19 334.44 547.23 334.96 545.47 336C543.71 337.013 542.324 338.493 541.31 340.44C540.297 342.36 539.79 344.613 539.79 347.2C539.79 349.76 540.297 352 541.31 353.92C542.324 355.813 543.71 357.28 545.47 358.32C547.23 359.36 549.19 359.88 551.35 359.88C554.044 359.88 556.31 359.267 558.15 358.04C560.017 356.787 561.35 355.093 562.15 352.96H564.23C563.217 355.653 561.617 357.747 559.43 359.24C557.244 360.733 554.55 361.48 551.35 361.48C548.817 361.48 546.524 360.88 544.47 359.68C542.444 358.453 540.844 356.76 539.67 354.6C538.524 352.413 537.95 349.947 537.95 347.2Z" fill="currentColor"/>
<path d="M603.652 334.64V346.36H614.852V347.88H603.652V359.68H616.052V361.2H601.852V333.12H616.052V334.64H603.652Z" fill="currentColor"/>
<path d="M711.269 333.12V334.64H698.589V346.36H709.669V347.88H698.589V361.2H696.789V333.12H711.269Z" fill="currentColor"/>
<path d="M760.567 361.52C757.98 361.52 755.647 360.92 753.567 359.72C751.487 358.493 749.86 356.787 748.687 354.6C747.514 352.413 746.927 349.947 746.927 347.2C746.927 344.427 747.514 341.96 748.687 339.8C749.86 337.613 751.487 335.92 753.567 334.72C755.647 333.493 757.98 332.88 760.567 332.88C763.154 332.88 765.487 333.493 767.567 334.72C769.647 335.92 771.274 337.613 772.447 339.8C773.62 341.96 774.207 344.427 774.207 347.2C774.207 349.947 773.62 352.413 772.447 354.6C771.274 356.787 769.647 358.493 767.567 359.72C765.487 360.92 763.154 361.52 760.567 361.52ZM760.567 359.92C762.78 359.92 764.78 359.4 766.567 358.36C768.354 357.32 769.754 355.84 770.767 353.92C771.807 352 772.327 349.76 772.327 347.2C772.327 344.613 771.807 342.36 770.767 340.44C769.754 338.52 768.354 337.04 766.567 336C764.78 334.96 762.78 334.44 760.567 334.44C758.354 334.44 756.354 334.96 754.567 336C752.78 337.04 751.367 338.52 750.327 340.44C749.287 342.36 748.767 344.613 748.767 347.2C748.767 349.76 749.287 352 750.327 353.92C751.367 355.84 752.78 357.32 754.567 358.36C756.354 359.4 758.354 359.92 760.567 359.92Z" fill="currentColor"/>
<path d="M826.808 361.2L819.608 349.24H813.448V361.2H811.648V333.12H819.368C822.488 333.12 824.822 333.853 826.368 335.32C827.942 336.787 828.728 338.733 828.728 341.16C828.728 343.32 828.115 345.107 826.888 346.52C825.688 347.907 823.928 348.76 821.608 349.08L828.968 361.2H826.808ZM813.448 347.72H819.448C821.928 347.72 823.782 347.12 825.008 345.92C826.235 344.72 826.848 343.133 826.848 341.16C826.848 336.867 824.355 334.72 819.368 334.72H813.448V347.72Z" fill="currentColor"/>
<path d="M929.439 361.2H927.639L911.159 336.08V361.2H909.359V333.16H911.159L927.639 358.2V333.16H929.439V361.2Z" fill="currentColor"/>
<path d="M969.839 334.64V346.36H981.039V347.88H969.839V359.68H982.239V361.2H968.039V333.12H982.239V334.64H969.839Z" fill="currentColor"/>
<path d="M1028.25 347.16L1036.69 361.2H1034.65L1027.09 348.6L1019.85 361.2H1017.85L1026.17 347.04L1017.81 333.12H1019.85L1027.33 345.6L1034.69 333.12H1036.73L1028.25 347.16Z" fill="currentColor"/>
<path d="M1088.93 333.12V334.64H1080.93V361.2H1079.13V334.64H1071.13V333.12H1088.93Z" fill="currentColor"/>
<path d="M97.6 4C126.933 4 152.667 9.73333 174.8 21.2C197.2 32.6667 214.4 49.0667 226.4 70.4C238.667 91.4667 244.8 116 244.8 144C244.8 172 238.667 196.533 226.4 217.6C214.4 238.4 197.2 254.533 174.8 266C152.667 277.467 126.933 283.2 97.6 283.2H0V4H97.6ZM95.6 235.6C124.933 235.6 147.6 227.6 163.6 211.6C179.6 195.6 187.6 173.067 187.6 144C187.6 114.933 179.6 92.2667 163.6 76C147.6 59.4667 124.933 51.2 95.6 51.2H56V235.6H95.6Z" fill="currentColor"/>
<path d="M403.119 286C383.652 286 366.052 282.667 350.319 276C334.852 269.333 322.585 259.733 313.519 247.2C304.452 234.667 299.785 219.867 299.519 202.8H359.519C360.319 214.267 364.319 223.333 371.519 230C378.985 236.667 389.119 240 401.919 240C414.985 240 425.252 236.933 432.719 230.8C440.185 224.4 443.919 216.133 443.919 206C443.919 197.733 441.385 190.933 436.319 185.6C431.252 180.267 424.852 176.133 417.119 173.2C409.652 170 399.252 166.533 385.919 162.8C367.785 157.467 352.985 152.267 341.519 147.2C330.319 141.867 320.585 134 312.319 123.6C304.319 112.933 300.319 98.8 300.319 81.2C300.319 64.6667 304.452 50.2667 312.719 38C320.985 25.7333 332.585 16.4 347.519 9.99999C362.452 3.33333 379.519 0 398.719 0C427.519 0 450.852 7.06666 468.719 21.2C486.852 35.0667 496.852 54.5333 498.719 79.6H437.119C436.585 70 432.452 62.1333 424.719 56C417.252 49.6 407.252 46.4 394.719 46.4C383.785 46.4 374.985 49.2 368.319 54.8C361.919 60.4 358.719 68.5333 358.719 79.2C358.719 86.6667 361.119 92.9333 365.919 98C370.985 102.8 377.119 106.8 384.319 110C391.785 112.933 402.185 116.4 415.519 120.4C433.652 125.733 448.452 131.067 459.919 136.4C471.385 141.733 481.252 149.733 489.519 160.4C497.785 171.067 501.919 185.067 501.919 202.4C501.919 217.333 498.052 231.2 490.319 244C482.585 256.8 471.252 267.067 456.319 274.8C441.385 282.267 423.652 286 403.119 286Z" fill="currentColor"/>
<path d="M692.069 226.8H555.269V179.2L683.669 3.19998H754.069V174.8H788.469V226.8H754.069V283.2H692.069V226.8ZM696.069 174.8V70.8L621.669 174.8H696.069Z" fill="currentColor"/>
<path d="M1091.38 283.2H1035.38L908.578 91.6V283.2H852.578V3.59998H908.578L1035.38 195.6V3.59998H1091.38V283.2Z" fill="currentColor"/>
</symbol>
  <symbol xmlns="http://www.w3.org/2000/svg" viewBox="0 0 320 512" id="facebook-f">
    <path fill="currentColor" d="M279.14 288l14.22-92.66h-88.91v-60.13c0-25.35 12.42-50.06 52.24-50.06h40.42V6.26S260.43 0 225.36 0c-73.22 0-121.08 44.38-121.08 124.72v70.62H22.89V288h81.39v224h100.17V288z"></path>
  </symbol>
  <symbol xmlns="http://www.w3.org/2000/svg" viewBox="0 0 448 512" id="instagram">
    <path fill="currentColor" d="M224.1 141c-63.6 0-114.9 51.3-114.9 114.9s51.3 114.9 114.9 114.9S339 319.5 339 255.9 287.7 141 224.1 141zm0 189.6c-41.1 0-74.7-33.5-74.7-74.7s33.5-74.7 74.7-74.7 74.7 33.5 74.7 74.7-33.6 74.7-74.7 74.7zm146.4-194.3c0 14.9-12 26.8-26.8 26.8-14.9 0-26.8-12-26.8-26.8s12-26.8 26.8-26.8 26.8 12 26.8 26.8zm76.1 27.2c-1.7-35.9-9.9-67.7-36.2-93.9-26.2-26.2-58-34.4-93.9-36.2-37-2.1-147.9-2.1-184.9 0-35.8 1.7-67.6 9.9-93.9 36.1s-34.4 58-36.2 93.9c-2.1 37-2.1 147.9 0 184.9 1.7 35.9 9.9 67.7 36.2 93.9s58 34.4 93.9 36.2c37 2.1 147.9 2.1 184.9 0 35.9-1.7 67.7-9.9 93.9-36.2 26.2-26.2 34.4-58 36.2-93.9 2.1-37 2.1-147.8 0-184.8zM398.8 388c-7.8 19.6-22.9 34.7-42.6 42.6-29.5 11.7-99.5 9-132.1 9s-102.7 2.6-132.1-9c-19.6-7.8-34.7-22.9-42.6-42.6-11.7-29.5-9-99.5-9-132.1s-2.6-102.7 9-132.1c7.8-19.6 22.9-34.7 42.6-42.6 29.5-11.7 99.5-9 132.1-9s102.7-2.6 132.1 9c19.6 7.8 34.7 22.9 42.6 42.6 11.7 29.5 9 99.5 9 132.1s2.7 102.7-9 132.1z"></path>
  </symbol>
  <symbol xmlns="http://www.w3.org/2000/svg" viewBox="0 0 512 512" id="twitch">
    <path fill="currentColor" d="M391.17,103.47H352.54v109.7h38.63ZM285,103H246.37V212.75H285ZM120.83,0,24.31,91.42V420.58H140.14V512l96.53-91.42h77.25L487.69,256V0ZM449.07,237.75l-77.22,73.12H294.61l-67.6,64v-64H140.14V36.58H449.07Z"></path>
  </symbol>
  <symbol xmlns="http://www.w3.org/2000/svg" viewBox="0 0 1200 1227" id="x">
    <path fill="currentColor" d="M714.163 519.284L1160.89 0H1055.03L667.137 450.887L357.328 0H0L468.492 681.821L0 1226.37H105.866L515.491 750.218L842.672 1226.37H1200L714.137 519.284H714.163ZM569.165 687.828L521.697 619.934L144.011 79.6944H306.615L611.412 515.685L658.88 583.579L1055.08 1150.3H892.476L569.165 687.854V687.828Z"></path>
  </symbol>
  <symbol xmlns="http://www.w3.org/2000/svg" viewBox="0 0 576 512" id="youtube">
    <path fill="currentColor" d="M549.655 124.083c-6.281-23.65-24.787-42.276-48.284-48.597C458.781 64 288 64 288 64S117.22 64 74.629 75.486c-23.497 6.322-42.003 24.947-48.284 48.597-11.412 42.867-11.412 132.305-11.412 132.305s0 89.438 11.412 132.305c6.281 23.65 24.787 41.5 48.284 47.821C117.22 448 288 448 288 448s170.78 0 213.371-11.486c23.497-6.321 42.003-24.171 48.284-47.821 11.412-42.867 11.412-132.305 11.412-132.305s0-89.438-11.412-132.305zm-317.51 213.508V175.185l142.739 81.205-142.739 81.201z"></path>
  </symbol>
  <symbol xmlns="http://www.w3.org/2000/svg" viewBox="0 0 448 512" id="linkedin">
    <path d="M416 32H31.9C14.3 32 0 46.5 0 64.3v383.4C0 465.5 14.3 480 31.9 480H416c17.6 0 32-14.5 32-32.3V64.3c0-17.8-14.4-32.3-32-32.3zM135.4 416H69V202.2h66.5V416zm-33.2-243c-21.3 0-38.5-17.3-38.5-38.5S80.9 96 102.2 96c21.2 0 38.5 17.3 38.5 38.5 0 21.3-17.2 38.5-38.5 38.5zm282.1 243h-66.4V312c0-24.8-.5-56.7-34.5-56.7-34.6 0-39.9 27-39.9 54.9V416h-66.4V202.2h63.7v29.2h.9c8.9-16.8 30.6-34.5 62.9-34.5 67.2 0 79.7 44.3 79.7 101.9V416z"></path>
  </symbol>
   <symbol xmlns="http://www.w3.org/2000/svg" viewBox="0 0 448 512" id="linkedin-in">
    <path fill="currentColor" d="M100.28 448H7.4V148.9h92.88zM53.79 108.1C24.09 108.1 0 83.5 0 53.8a53.79 53.79 0 0 1 107.58 0c0 29.7-24.1 54.3-53.79 54.3zM447.9 448h-92.68V302.4c0-34.7-.7-79.2-48.29-79.2-48.29 0-55.69 37.7-55.69 76.7V448h-92.78V148.9h89.08v40.8h1.3c12.4-23.5 42.69-48.3 87.88-48.3 94 0 111.28 61.9 111.28 142.3V448z"></path>
  </symbol>
  <symbol xmlns="http://www.w3.org/2000/svg" viewBox="0 0 448 512" id="whatsapp">
    <path fill="currentColor" d="M380.9 97.1C339 55.1 283.2 32 223.9 32c-122.4 0-222 99.6-222 222 0 39.1 10.2 77.3 29.6 111L0 480l117.7-30.9c32.4 17.7 68.9 27 106.1 27h.1c122.3 0 224.1-99.6 224.1-222 0-59.3-25.2-115-67.1-157zm-157 341.6c-33.2 0-65.7-8.9-94-25.7l-6.7-4-69.8 18.3L72 359.2l-4.4-7c-18.5-29.4-28.2-63.3-28.2-98.2 0-101.7 82.8-184.5 184.6-184.5 49.3 0 95.6 19.2 130.4 54.1 34.8 34.9 56.2 81.2 56.1 130.5 0 101.8-84.9 184.6-186.6 184.6zm101.2-138.2c-5.5-2.8-32.8-16.2-37.9-18-5.1-1.9-8.8-2.8-12.5 2.8-3.7 5.6-14.3 18-17.6 21.8-3.2 3.7-6.5 4.2-12 1.4-32.6-16.3-54-29.1-75.5-66-5.7-9.8 5.7-9.1 16.3-30.3 1.8-3.7.9-6.9-.5-9.7-1.4-2.8-12.5-30.1-17.1-41.2-4.5-10.8-9.1-9.3-12.5-9.5-3.2-.2-6.9-.2-10.6-.2-3.7 0-9.7 1.4-14.8 6.9-5.1 5.6-19.4 19-19.4 46.3 0 27.3 19.9 53.7 22.6 57.4 2.8 3.7 39.1 59.7 94.8 83.8 35.2 15.2 49 16.5 66.6 13.9 10.7-1.6 32.8-13.4 37.4-26.4 4.6-13 4.6-24.1 3.2-26.4-1.3-2.5-5-3.9-10.5-6.6z"></path>
  </symbol>
  <symbol xmlns="http://www.w3.org/2000/svg" viewBox="0 0 488 512" id="google">
    <path fill="currentColor" d="M488 261.8C488 403.3 391.1 504 248 504 110.8 504 0 393.2 0 256S110.8 8 248 8c66.8 0 123 24.5 166.3 64.9l-67.5 64.9C258.5 52.6 94.3 116.6 94.3 256c0 86.5 69.1 156.6 153.7 156.6 98.2 0 135-70.4 140.8-106.9H248v-85.3h236.1c2.3 12.7 3.9 24.9 3.9 41.4z"></path>
  </symbol>
  <symbol xmlns="http://www.w3.org/2000/svg" viewBox="0 0 448 512" id="line">
    <path fill="currentColor" d="M272.1 204.2v71.1c0 1.8-1.4 3.2-3.2 3.2h-11.4c-1.1 0-2.1-.6-2.6-1.3l-32.6-44v42.2c0 1.8-1.4 3.2-3.2 3.2h-11.4c-1.8 0-3.2-1.4-3.2-3.2v-71.1c0-1.8 1.4-3.2 3.2-3.2H219c1 0 2.1.5 2.6 1.4l32.6 44v-42.2c0-1.8 1.4-3.2 3.2-3.2h11.4c1.8-.1 3.3 1.4 3.3 3.1zm-82-3.2h-11.4c-1.8 0-3.2 1.4-3.2 3.2v71.1c0 1.8 1.4 3.2 3.2 3.2h11.4c1.8 0 3.2-1.4 3.2-3.2v-71.1c0-1.7-1.4-3.2-3.2-3.2zm-27.5 59.6h-31.1v-56.4c0-1.8-1.4-3.2-3.2-3.2h-11.4c-1.8 0-3.2 1.4-3.2 3.2v71.1c0 .9.3 1.6.9 2.2.6.5 1.3.9 2.2.9h45.7c1.8 0 3.2-1.4 3.2-3.2v-11.4c0-1.7-1.4-3.2-3.1-3.2zM332.1 201h-45.7c-1.7 0-3.2 1.4-3.2 3.2v71.1c0 1.7 1.4 3.2 3.2 3.2h45.7c1.8 0 3.2-1.4 3.2-3.2v-11.4c0-1.8-1.4-3.2-3.2-3.2H301v-12h31.1c1.8 0 3.2-1.4 3.2-3.2V234c0-1.8-1.4-3.2-3.2-3.2H301v-12h31.1c1.8 0 3.2-1.4 3.2-3.2v-11.4c-.1-1.7-1.5-3.2-3.2-3.2zM448 113.7V399c-.1 44.8-36.8 81.1-81.7 81H81c-44.8-.1-81.1-36.9-81-81.7V113c.1-44.8 36.9-81.1 81.7-81H367c44.8.1 81.1 36.8 81 81.7zm-61.6 122.6c0-73-73.2-132.4-163.1-132.4-89.9 0-163.1 59.4-163.1 132.4 0 65.4 58 120.2 136.4 130.6 19.1 4.1 16.9 11.1 12.6 36.8-.7 4.1-3.3 16.1 14.1 8.8 17.4-7.3 93.9-55.3 128.2-94.7 23.6-26 34.9-52.3 34.9-81.5z"></path>
  </symbol>
  <symbol xmlns="http://www.w3.org/2000/svg" viewBox="0 0 448 512" id="get-pocket">
    <path fill="currentColor" d="M407.6 64h-367C18.5 64 0 82.5 0 104.6v135.2C0 364.5 99.7 464 224.2 464c124 0 223.8-99.5 223.8-224.2V104.6c0-22.4-17.7-40.6-40.4-40.6zm-162 268.5c-12.4 11.8-31.4 11.1-42.4 0C89.5 223.6 88.3 227.4 88.3 209.3c0-16.9 13.8-30.7 30.7-30.7 17 0 16.1 3.8 105.2 89.3 90.6-86.9 88.6-89.3 105.5-89.3 16.9 0 30.7 13.8 30.7 30.7 0 17.8-2.9 15.7-114.8 123.2z"></path>
  </symbol>
  <symbol xmlns="http://www.w3.org/2000/svg" viewBox="0 0 496 512" id="pinterest">
    <path fill="currentColor" d="M496 256c0 137-111 248-248 248-25.6 0-50.2-3.9-73.4-11.1 10.1-16.5 25.2-43.5 30.8-65 3-11.6 15.4-59 15.4-59 8.1 15.4 31.7 28.5 56.8 28.5 74.8 0 128.7-68.8 128.7-154.3 0-81.9-66.9-143.2-152.9-143.2-107 0-163.9 71.8-163.9 150.1 0 36.4 19.4 81.7 50.3 96.1 4.7 2.2 7.2 1.2 8.3-3.3.8-3.4 5-20.3 6.9-28.1.6-2.5.3-4.7-1.7-7.1-10.1-12.5-18.3-35.3-18.3-56.6 0-54.7 41.4-107.6 112-107.6 60.9 0 103.6 41.5 103.6 100.9 0 67.1-33.9 113.6-78 113.6-24.3 0-42.6-20.1-36.7-44.8 7-29.5 20.5-61.3 20.5-82.6 0-19-10.2-34.9-31.4-34.9-24.9 0-44.9 25.7-44.9 60.2 0 22 7.4 36.8 7.4 36.8s-24.5 103.8-29 123.2c-5 21.4-3 51.6-.9 71.2C65.4 450.9 0 361.1 0 256 0 119 111 8 248 8s248 111 248 248z"></path>
  </symbol>
  <symbol xmlns="http://www.w3.org/2000/svg" viewBox="0 0 384 512" id="pinterest-p">
    <path fill="currentColor" d="M204 6.5C101.4 6.5 0 74.9 0 185.6 0 256 39.6 296 63.6 296c9.9 0 15.6-27.6 15.6-35.4 0-9.3-23.7-29.1-23.7-67.8 0-80.4 61.2-137.4 140.4-137.4 68.1 0 118.5 38.7 118.5 109.8 0 53.1-21.3 152.7-90.3 152.7-24.9 0-46.2-18-46.2-43.8 0-37.8 26.4-74.4 26.4-113.4 0-66.2-93.9-54.2-93.9 25.8 0 16.8 2.1 35.4 9.6 50.7-13.8 59.4-42 147.9-42 209.1 0 18.9 2.7 37.5 4.5 56.4 3.4 3.8 1.7 3.4 6.9 1.5 50.4-69 48.6-82.5 71.4-172.8 12.3 23.4 44.1 36 69.3 36 106.2 0 153.9-103.5 153.9-196.8C384 71.3 298.2 6.5 204 6.5z"></path>
  </symbol>
  <symbol xmlns="http://www.w3.org/2000/svg" viewBox="0 0 496 512" id="telegram">
    <path fill="currentColor" d="M248,8C111.033,8,0,119.033,0,256S111.033,504,248,504,496,392.967,496,256,384.967,8,248,8ZM362.952,176.66c-3.732,39.215-19.881,134.378-28.1,178.3-3.476,18.584-10.322,24.816-16.948,25.425-14.4,1.326-25.338-9.517-39.287-18.661-21.827-14.308-34.158-23.215-55.346-37.177-24.485-16.135-8.612-25,5.342-39.5,3.652-3.793,67.107-61.51,68.335-66.746.153-.655.3-3.1-1.154-4.384s-3.59-.849-5.135-.5q-3.283.746-104.608,69.142-14.845,10.194-26.894,9.934c-8.855-.191-25.888-5.006-38.551-9.123-15.531-5.048-27.875-7.717-26.8-16.291q.84-6.7,18.45-13.7,108.446-47.248,144.628-62.3c68.872-28.647,83.183-33.623,92.511-33.789,2.052-.034,6.639.474,9.61,2.885a10.452,10.452,0,0,1,3.53,6.716A43.765,43.765,0,0,1,362.952,176.66Z"></path>
  </symbol>
  <symbol xmlns="http://www.w3.org/2000/svg" viewBox="0 0 512 512" id="viber">
    <path fill="currentColor" d="M444 49.9C431.3 38.2 379.9.9 265.3.4c0 0-135.1-8.1-200.9 52.3C27.8 89.3 14.9 143 13.5 209.5c-1.4 66.5-3.1 191.1 117 224.9h.1l-.1 51.6s-.8 20.9 13 25.1c16.6 5.2 26.4-10.7 42.3-27.8 8.7-9.4 20.7-23.2 29.8-33.7 82.2 6.9 145.3-8.9 152.5-11.2 16.6-5.4 110.5-17.4 125.7-142 15.8-128.6-7.6-209.8-49.8-246.5zM457.9 287c-12.9 104-89 110.6-103 115.1-6 1.9-61.5 15.7-131.2 11.2 0 0-52 62.7-68.2 79-5.3 5.3-11.1 4.8-11-5.7 0-6.9.4-85.7.4-85.7-.1 0-.1 0 0 0-101.8-28.2-95.8-134.3-94.7-189.8 1.1-55.5 11.6-101 42.6-131.6 55.7-50.5 170.4-43 170.4-43 96.9.4 143.3 29.6 154.1 39.4 35.7 30.6 53.9 103.8 40.6 211.1zm-139-80.8c.4 8.6-12.5 9.2-12.9.6-1.1-22-11.4-32.7-32.6-33.9-8.6-.5-7.8-13.4.7-12.9 27.9 1.5 43.4 17.5 44.8 46.2zm20.3 11.3c1-42.4-25.5-75.6-75.8-79.3-8.5-.6-7.6-13.5.9-12.9 58 4.2 88.9 44.1 87.8 92.5-.1 8.6-13.1 8.2-12.9-.3zm47 13.4c.1 8.6-12.9 8.7-12.9.1-.6-81.5-54.9-125.9-120.8-126.4-8.5-.1-8.5-12.9 0-12.9 73.7.5 133 51.4 133.7 139.2zM374.9 329v.2c-10.8 19-31 40-51.8 33.3l-.2-.3c-21.1-5.9-70.8-31.5-102.2-56.5-16.2-12.8-31-27.9-42.4-42.4-10.3-12.9-20.7-28.2-30.8-46.6-21.3-38.5-26-55.7-26-55.7-6.7-20.8 14.2-41 33.3-51.8h.2c9.2-4.8 18-3.2 23.9 3.9 0 0 12.4 14.8 17.7 22.1 5 6.8 11.7 17.7 15.2 23.8 6.1 10.9 2.3 22-3.7 26.6l-12 9.6c-6.1 4.9-5.3 14-5.3 14s17.8 67.3 84.3 84.3c0 0 9.1.8 14-5.3l9.6-12c4.6-6 15.7-9.8 26.6-3.7 14.7 8.3 33.4 21.2 45.8 32.9 7 5.7 8.6 14.4 3.8 23.6z"></path>
  </symbol>
  <symbol xmlns="http://www.w3.org/2000/svg" viewBox="0 0 512 512" id="stumbleupon">
    <path fill="currentColor" d="M502.9 266v69.7c0 62.1-50.3 112.4-112.4 112.4-61.8 0-112.4-49.8-112.4-111.3v-70.2l34.3 16 51.1-15.2V338c0 14.7 12 26.5 26.7 26.5S417 352.7 417 338v-72h85.9zm-224.7-58.2l34.3 16 51.1-15.2V173c0-60.5-51.1-109-112.1-109-60.8 0-112.1 48.2-112.1 108.2v162.4c0 14.9-12 26.7-26.7 26.7S86 349.5 86 334.6V266H0v69.7C0 397.7 50.3 448 112.4 448c61.6 0 112.4-49.5 112.4-110.8V176.9c0-14.7 12-26.7 26.7-26.7s26.7 12 26.7 26.7v30.9z"></path>
  </symbol>
  <symbol xmlns="http://www.w3.org/2000/svg" viewBox="0 0 496 512" id="stumbleupon-circle">
    <path fill="currentColor" d="M256 8C119 8 8 119 8 256s111 248 248 248 248-111 248-248S393 8 256 8zm0 177.5c-9.8 0-17.8 8-17.8 17.8v106.9c0 40.9-33.9 73.9-74.9 73.9-41.4 0-74.9-33.5-74.9-74.9v-46.5h57.3v45.8c0 10 8 17.8 17.8 17.8s17.8-7.9 17.8-17.8V200.1c0-40 34.2-72.1 74.7-72.1 40.7 0 74.7 32.3 74.7 72.6v23.7l-34.1 10.1-22.9-10.7v-20.6c.1-9.6-7.9-17.6-17.7-17.6zm167.6 123.6c0 41.4-33.5 74.9-74.9 74.9-41.2 0-74.9-33.2-74.9-74.2V263l22.9 10.7 34.1-10.1v47.1c0 9.8 8 17.6 17.8 17.6s17.8-7.9 17.8-17.6v-48h57.3c-.1 45.9-.1 46.4-.1 46.4z"></path>
  </symbol>
  <symbol xmlns="http://www.w3.org/2000/svg" viewBox="0 0 448 512" id="vk">
    <path fill="currentColor" d="M31.4907 63.4907C0 94.9813 0 145.671 0 247.04V264.96C0 366.329 0 417.019 31.4907 448.509C62.9813 480 113.671 480 215.04 480H232.96C334.329 480 385.019 480 416.509 448.509C448 417.019 448 366.329 448 264.96V247.04C448 145.671 448 94.9813 416.509 63.4907C385.019 32 334.329 32 232.96 32H215.04C113.671 32 62.9813 32 31.4907 63.4907ZM75.6 168.267H126.747C128.427 253.76 166.133 289.973 196 297.44V168.267H244.16V242C273.653 238.827 304.64 205.227 315.093 168.267H363.253C359.313 187.435 351.46 205.583 340.186 221.579C328.913 237.574 314.461 251.071 297.733 261.227C316.41 270.499 332.907 283.63 346.132 299.751C359.357 315.873 369.01 334.618 374.453 354.747H321.44C316.555 337.262 306.614 321.61 292.865 309.754C279.117 297.899 262.173 290.368 244.16 288.107V354.747H238.373C136.267 354.747 78.0267 284.747 75.6 168.267Z"></path>
  </symbol>
  <symbol xmlns="http://www.w3.org/2000/svg" viewBox="0 0 640 512" id="comments">
    <path fill="currentColor" d="M208 0C322.9 0 416 78.8 416 176C416 273.2 322.9 352 208 352C189.3 352 171.2 349.7 153.9 345.8C123.3 364.8 79.13 384 24.95 384C14.97 384 5.93 378.1 2.018 368.9C-1.896 359.7-.0074 349.1 6.739 341.9C7.26 341.5 29.38 317.4 45.73 285.9C17.18 255.8 0 217.6 0 176C0 78.8 93.13 0 208 0zM164.6 298.1C179.2 302.3 193.8 304 208 304C296.2 304 368 246.6 368 176C368 105.4 296.2 48 208 48C119.8 48 48 105.4 48 176C48 211.2 65.71 237.2 80.57 252.9L104.1 277.8L88.31 308.1C84.74 314.1 80.73 321.9 76.55 328.5C94.26 323.4 111.7 315.5 128.7 304.1L145.4 294.6L164.6 298.1zM441.6 128.2C552 132.4 640 209.5 640 304C640 345.6 622.8 383.8 594.3 413.9C610.6 445.4 632.7 469.5 633.3 469.9C640 477.1 641.9 487.7 637.1 496.9C634.1 506.1 625 512 615 512C560.9 512 516.7 492.8 486.1 473.8C468.8 477.7 450.7 480 432 480C350 480 279.1 439.8 245.2 381.5C262.5 379.2 279.1 375.3 294.9 369.9C322.9 407.1 373.9 432 432 432C446.2 432 460.8 430.3 475.4 426.1L494.6 422.6L511.3 432.1C528.3 443.5 545.7 451.4 563.5 456.5C559.3 449.9 555.3 442.1 551.7 436.1L535.9 405.8L559.4 380.9C574.3 365.3 592 339.2 592 304C592 237.7 528.7 183.1 447.1 176.6L448 176C448 159.5 445.8 143.5 441.6 128.2H441.6z"></path>
  </symbol>
  <symbol xmlns="http://www.w3.org/2000/svg" viewBox="0 0 512 512" id="envelope">
    <path fill="currentColor" d="M0 128C0 92.65 28.65 64 64 64H448C483.3 64 512 92.65 512 128V384C512 419.3 483.3 448 448 448H64C28.65 448 0 419.3 0 384V128zM48 128V150.1L220.5 291.7C241.1 308.7 270.9 308.7 291.5 291.7L464 150.1V127.1C464 119.2 456.8 111.1 448 111.1H64C55.16 111.1 48 119.2 48 127.1L48 128zM48 212.2V384C48 392.8 55.16 400 64 400H448C456.8 400 464 392.8 464 384V212.2L322 328.8C283.6 360.3 228.4 360.3 189.1 328.8L48 212.2z"></path>
  </symbol>
  <symbol xmlns="http://www.w3.org/2000/svg" viewBox="0 0 576 512" id="cc-mastercard">
        <path fill="currentColor" d="M482.9 410.3c0 6.8-4.6 11.7-11.2 11.7-6.8 0-11.2-5.2-11.2-11.7 0-6.5 4.4-11.7 11.2-11.7 6.6 0 11.2 5.2 11.2 11.7zm-310.8-11.7c-7.1 0-11.2 5.2-11.2 11.7 0 6.5 4.1 11.7 11.2 11.7 6.5 0 10.9-4.9 10.9-11.7-.1-6.5-4.4-11.7-10.9-11.7zm117.5-.3c-5.4 0-8.7 3.5-9.5 8.7h19.1c-.9-5.7-4.4-8.7-9.6-8.7zm107.8.3c-6.8 0-10.9 5.2-10.9 11.7 0 6.5 4.1 11.7 10.9 11.7 6.8 0 11.2-4.9 11.2-11.7 0-6.5-4.4-11.7-11.2-11.7zm105.9 26.1c0 .3.3.5.3 1.1 0 .3-.3.5-.3 1.1-.3.3-.3.5-.5.8-.3.3-.5.5-1.1.5-.3.3-.5.3-1.1.3-.3 0-.5 0-1.1-.3-.3 0-.5-.3-.8-.5-.3-.3-.5-.5-.5-.8-.3-.5-.3-.8-.3-1.1 0-.5 0-.8.3-1.1 0-.5.3-.8.5-1.1.3-.3.5-.3.8-.5.5-.3.8-.3 1.1-.3.5 0 .8 0 1.1.3.5.3.8.3 1.1.5s.2.6.5 1.1zm-2.2 1.4c.5 0 .5-.3.8-.3.3-.3.3-.5.3-.8 0-.3 0-.5-.3-.8-.3 0-.5-.3-1.1-.3h-1.6v3.5h.8V426h.3l1.1 1.4h.8l-1.1-1.3zM576 81v352c0 26.5-21.5 48-48 48H48c-26.5 0-48-21.5-48-48V81c0-26.5 21.5-48 48-48h480c26.5 0 48 21.5 48 48zM64 220.6c0 76.5 62.1 138.5 138.5 138.5 27.2 0 53.9-8.2 76.5-23.1-72.9-59.3-72.4-171.2 0-230.5-22.6-15-49.3-23.1-76.5-23.1-76.4-.1-138.5 62-138.5 138.2zm224 108.8c70.5-55 70.2-162.2 0-217.5-70.2 55.3-70.5 162.6 0 217.5zm-142.3 76.3c0-8.7-5.7-14.4-14.7-14.7-4.6 0-9.5 1.4-12.8 6.5-2.4-4.1-6.5-6.5-12.2-6.5-3.8 0-7.6 1.4-10.6 5.4V392h-8.2v36.7h8.2c0-18.9-2.5-30.2 9-30.2 10.2 0 8.2 10.2 8.2 30.2h7.9c0-18.3-2.5-30.2 9-30.2 10.2 0 8.2 10 8.2 30.2h8.2v-23zm44.9-13.7h-7.9v4.4c-2.7-3.3-6.5-5.4-11.7-5.4-10.3 0-18.2 8.2-18.2 19.3 0 11.2 7.9 19.3 18.2 19.3 5.2 0 9-1.9 11.7-5.4v4.6h7.9V392zm40.5 25.6c0-15-22.9-8.2-22.9-15.2 0-5.7 11.9-4.8 18.5-1.1l3.3-6.5c-9.4-6.1-30.2-6-30.2 8.2 0 14.3 22.9 8.3 22.9 15 0 6.3-13.5 5.8-20.7.8l-3.5 6.3c11.2 7.6 32.6 6 32.6-7.5zm35.4 9.3l-2.2-6.8c-3.8 2.1-12.2 4.4-12.2-4.1v-16.6h13.1V392h-13.1v-11.2h-8.2V392h-7.6v7.3h7.6V416c0 17.6 17.3 14.4 22.6 10.9zm13.3-13.4h27.5c0-16.2-7.4-22.6-17.4-22.6-10.6 0-18.2 7.9-18.2 19.3 0 20.5 22.6 23.9 33.8 14.2l-3.8-6c-7.8 6.4-19.6 5.8-21.9-4.9zm59.1-21.5c-4.6-2-11.6-1.8-15.2 4.4V392h-8.2v36.7h8.2V408c0-11.6 9.5-10.1 12.8-8.4l2.4-7.6zm10.6 18.3c0-11.4 11.6-15.1 20.7-8.4l3.8-6.5c-11.6-9.1-32.7-4.1-32.7 15 0 19.8 22.4 23.8 32.7 15l-3.8-6.5c-9.2 6.5-20.7 2.6-20.7-8.6zm66.7-18.3H408v4.4c-8.3-11-29.9-4.8-29.9 13.9 0 19.2 22.4 24.7 29.9 13.9v4.6h8.2V392zm33.7 0c-2.4-1.2-11-2.9-15.2 4.4V392h-7.9v36.7h7.9V408c0-11 9-10.3 12.8-8.4l2.4-7.6zm40.3-14.9h-7.9v19.3c-8.2-10.9-29.9-5.1-29.9 13.9 0 19.4 22.5 24.6 29.9 13.9v4.6h7.9v-51.7zm7.6-75.1v4.6h.8V302h1.9v-.8h-4.6v.8h1.9zm6.6 123.8c0-.5 0-1.1-.3-1.6-.3-.3-.5-.8-.8-1.1-.3-.3-.8-.5-1.1-.8-.5 0-1.1-.3-1.6-.3-.3 0-.8.3-1.4.3-.5.3-.8.5-1.1.8-.5.3-.8.8-.8 1.1-.3.5-.3 1.1-.3 1.6 0 .3 0 .8.3 1.4 0 .3.3.8.8 1.1.3.3.5.5 1.1.8.5.3 1.1.3 1.4.3.5 0 1.1 0 1.6-.3.3-.3.8-.5 1.1-.8.3-.3.5-.8.8-1.1.3-.6.3-1.1.3-1.4zm3.2-124.7h-1.4l-1.6 3.5-1.6-3.5h-1.4v5.4h.8v-4.1l1.6 3.5h1.1l1.4-3.5v4.1h1.1v-5.4zm4.4-80.5c0-76.2-62.1-138.3-138.5-138.3-27.2 0-53.9 8.2-76.5 23.1 72.1 59.3 73.2 171.5 0 230.5 22.6 15 49.5 23.1 76.5 23.1 76.4.1 138.5-61.9 138.5-138.4z"></path>
    </symbol>
    <symbol xmlns="http://www.w3.org/2000/svg" viewBox="0 0 576 512" id="cc-amex">
        <path fill="currentColor" d="M48 480C21.49 480 0 458.5 0 432V80C0 53.49 21.49 32 48 32H528C554.5 32 576 53.49 576 80V82.43H500.5L483.5 130L466.6 82.43H369.4V145.6L341.3 82.43H262.7L181 267.1H246.8V430.9H450.5L482.4 395.8L514.3 430.9H576V432C576 458.5 554.5 480 528 480H48zM482.6 364L440.4 410.3H390.5L458 338.6L390.5 266.1H441.9L483.4 312.8L525.4 266.1H576L508 338.2L576 410.3H524.6L482.6 364zM576 296.9V380.2L536.7 338.3L576 296.9zM307.6 377.1H390.6V410.3H268.6V267.1H390.6V300.2H307.6V322.6H388.5V354.9H307.6V377.2V377.1zM537.3 145.7L500.4 246.3H466L429.2 146V246.3H390.5V103H451.7L483.6 192.3L515.8 103H576V246.3H537.3V145.7zM334.5 217.6H268.6L256.7 246.3H213.7L276.1 103H327.3L390.6 246.3H346.5L334.5 217.6zM301.5 138.5L282 185.4H320.9L301.5 138.5z"></path>
    </symbol>
    <symbol xmlns="http://www.w3.org/2000/svg" viewBox="0 0 576 512" id="cc-visa">
        <path fill="currentColor" d="M470.1 231.3s7.6 37.2 9.3 45H446c3.3-8.9 16-43.5 16-43.5-.2.3 3.3-9.1 5.3-14.9l2.8 13.4zM576 80v352c0 26.5-21.5 48-48 48H48c-26.5 0-48-21.5-48-48V80c0-26.5 21.5-48 48-48h480c26.5 0 48 21.5 48 48zM152.5 331.2L215.7 176h-42.5l-39.3 106-4.3-21.5-14-71.4c-2.3-9.9-9.4-12.7-18.2-13.1H32.7l-.7 3.1c15.8 4 29.9 9.8 42.2 17.1l35.8 135h42.5zm94.4.2L272.1 176h-40.2l-25.1 155.4h40.1zm139.9-50.8c.2-17.7-10.6-31.2-33.7-42.3-14.1-7.1-22.7-11.9-22.7-19.2.2-6.6 7.3-13.4 23.1-13.4 13.1-.3 22.7 2.8 29.9 5.9l3.6 1.7 5.5-33.6c-7.9-3.1-20.5-6.6-36-6.6-39.7 0-67.6 21.2-67.8 51.4-.3 22.3 20 34.7 35.2 42.2 15.5 7.6 20.8 12.6 20.8 19.3-.2 10.4-12.6 15.2-24.1 15.2-16 0-24.6-2.5-37.7-8.3l-5.3-2.5-5.6 34.9c9.4 4.3 26.8 8.1 44.8 8.3 42.2.1 69.7-20.8 70-53zM528 331.4L495.6 176h-31.1c-9.6 0-16.9 2.8-21 12.9l-59.7 142.5H426s6.9-19.2 8.4-23.3H486c1.2 5.5 4.8 23.3 4.8 23.3H528z"></path>
    </symbol>
    <symbol xmlns="http://www.w3.org/2000/svg" viewBox="0 0 448 512" id="user">
        <path fill="currentColor" d="M272 304h-96C78.8 304 0 382.8 0 480c0 17.67 14.33 32 32 32h384c17.67 0 32-14.33 32-32C448 382.8 369.2 304 272 304zM48.99 464C56.89 400.9 110.8 352 176 352h96c65.16 0 119.1 48.95 127 112H48.99zM224 256c70.69 0 128-57.31 128-128c0-70.69-57.31-128-128-128S96 57.31 96 128C96 198.7 153.3 256 224 256zM224 48c44.11 0 80 35.89 80 80c0 44.11-35.89 80-80 80S144 172.1 144 128C144 83.89 179.9 48 224 48z"></path>
    </symbol>
    <symbol xmlns="http://www.w3.org/2000/svg" viewBox="0 0 512 512" id="heart">
        <path fill="currentColor" d="M244 84L255.1 96L267.1 84.02C300.6 51.37 347 36.51 392.6 44.1C461.5 55.58 512 115.2 512 185.1V190.9C512 232.4 494.8 272.1 464.4 300.4L283.7 469.1C276.2 476.1 266.3 480 256 480C245.7 480 235.8 476.1 228.3 469.1L47.59 300.4C17.23 272.1 0 232.4 0 190.9V185.1C0 115.2 50.52 55.58 119.4 44.1C164.1 36.51 211.4 51.37 244 84C243.1 84 244 84.01 244 84L244 84zM255.1 163.9L210.1 117.1C188.4 96.28 157.6 86.4 127.3 91.44C81.55 99.07 48 138.7 48 185.1V190.9C48 219.1 59.71 246.1 80.34 265.3L256 429.3L431.7 265.3C452.3 246.1 464 219.1 464 190.9V185.1C464 138.7 430.4 99.07 384.7 91.44C354.4 86.4 323.6 96.28 301.9 117.1L255.1 163.9z"></path>
    </symbol>
    <symbol xmlns="http://www.w3.org/2000/svg" viewBox="0 0 48 48" id="search">
        <path fill="currentColor" d="M39.8 41.95 26.65 28.8q-1.5 1.3-3.5 2.025-2 .725-4.25.725-5.4 0-9.15-3.75T6 18.75q0-5.3 3.75-9.05 3.75-3.75 9.1-3.75 5.3 0 9.025 3.75 3.725 3.75 3.725 9.05 0 2.15-.7 4.15-.7 2-2.1 3.75L42 39.75Zm-20.95-13.4q4.05 0 6.9-2.875Q28.6 22.8 28.6 18.75t-2.85-6.925Q22.9 8.95 18.85 8.95q-4.1 0-6.975 2.875T9 18.75q0 4.05 2.875 6.925t6.975 2.875Z"></path>
    </symbol>
    <symbol xmlns="http://www.w3.org/2000/svg" viewBox="0 0 48 48" id="notification">
        <path fill="currentColor" d="M8 38v-3h4.2V19.7q0-4.1 2.475-7.425T21.2 8.1V6.65q0-1.15.825-1.9T24 4q1.15 0 1.975.75.825.75.825 1.9V8.1q1.25.25 2.525.875t2.225 1.475l-1.075 1.075L29.4 12.6q-1.1-.9-2.525-1.35Q25.45 10.8 24 10.8q-3.75 0-6.275 2.575Q15.2 15.95 15.2 19.7V35h17.65v-7.4h3V35H40v3Zm16 6q-1.65 0-2.825-1.175Q20 41.65 20 40h8q0 1.65-1.175 2.825Q25.65 44 24 44Zm14.5-18v-6.5H32v-3h6.5V10h3v6.5H48v3h-6.5V26Zm-14.45-3.1Z"></path>
    </symbol>
    <symbol xmlns="http://www.w3.org/2000/svg" viewBox="0 0 48 48" id="star">
        <path fill="currentColor" d="m16.15 37.75 7.85-4.7 7.85 4.75-2.1-8.9 6.9-6-9.1-.8L24 13.7l-3.55 8.35-9.1.8 6.9 6ZM11.65 44l3.25-14.05L4 20.5l14.4-1.25L24 6l5.6 13.25L44 20.5l-10.9 9.45L36.35 44 24 36.55ZM24 26.25Z"></path>
    </symbol>
    <symbol xmlns="http://www.w3.org/2000/svg" viewBox="0 0 512 512" id="ban">
        <path fill="currentColor" d="M367.2 412.5L99.5 144.8C77.1 176.1 64 214.5 64 256c0 106 86 192 192 192c41.5 0 79.9-13.1 111.2-35.5zm45.3-45.3C434.9 335.9 448 297.5 448 256c0-106-86-192-192-192c-41.5 0-79.9 13.1-111.2 35.5L412.5 367.2zM512 256c0 141.4-114.6 256-256 256S0 397.4 0 256S114.6 0 256 0S512 114.6 512 256z"></path>
    </symbol>
    <symbol xmlns="http://www.w3.org/2000/svg" viewBox="0 0 512 512" id="triangle-exclamation">
        <path fill="currentColor" d="M256 32c14.2 0 27.3 7.5 34.5 19.8l216 368c7.3 12.4 7.3 27.7 .2 40.1S486.3 480 472 480H40c-14.3 0-27.6-7.7-34.7-20.1s-7-27.8 .2-40.1l216-368C228.7 39.5 241.8 32 256 32zm0 128c-13.3 0-24 10.7-24 24V296c0 13.3 10.7 24 24 24s24-10.7 24-24V184c0-13.3-10.7-24-24-24zm32 224c0-17.7-14.3-32-32-32s-32 14.3-32 32s14.3 32 32 32s32-14.3 32-32z"></path>
    </symbol>
    <symbol xmlns="http://www.w3.org/2000/svg" viewBox="0 0 448 512" id="trash-can">
        <path fill="currentColor" d="M135.2 17.7C140.6 6.8 151.7 0 163.8 0H284.2c12.1 0 23.2 6.8 28.6 17.7L320 32h96c17.7 0 32 14.3 32 32s-14.3 32-32 32H32C14.3 96 0 81.7 0 64S14.3 32 32 32h96l7.2-14.3zM32 128H416V448c0 35.3-28.7 64-64 64H96c-35.3 0-64-28.7-64-64V128zm96 64c-8.8 0-16 7.2-16 16V432c0 8.8 7.2 16 16 16s16-7.2 16-16V208c0-8.8-7.2-16-16-16zm96 0c-8.8 0-16 7.2-16 16V432c0 8.8 7.2 16 16 16s16-7.2 16-16V208c0-8.8-7.2-16-16-16zm96 0c-8.8 0-16 7.2-16 16V432c0 8.8 7.2 16 16 16s16-7.2 16-16V208c0-8.8-7.2-16-16-16z"></path>
    </symbol>
    <symbol xmlns="http://www.w3.org/2000/svg" viewBox="0 0 320 512" id="angle-left">
        <path fill="currentColor" d="M41.4 233.4c-12.5 12.5-12.5 32.8 0 45.3l160 160c12.5 12.5 32.8 12.5 45.3 0s12.5-32.8 0-45.3L109.3 256 246.6 118.6c12.5-12.5 12.5-32.8 0-45.3s-32.8-12.5-45.3 0l-160 160z"></path>
    </symbol>
    <symbol xmlns="http://www.w3.org/2000/svg" viewBox="0 0 448 512" id="angle-up">
        <path fill="currentColor" d="M201.4 137.4c12.5-12.5 32.8-12.5 45.3 0l160 160c12.5 12.5 12.5 32.8 0 45.3s-32.8 12.5-45.3 0L224 205.3 86.6 342.6c-12.5 12.5-32.8 12.5-45.3 0s-12.5-32.8 0-45.3l160-160z"></path>
    </symbol>
    <symbol xmlns="http://www.w3.org/2000/svg" viewBox="0 0 320 512" id="angle-right">
        <path fill="currentColor" d="M278.6 233.4c12.5 12.5 12.5 32.8 0 45.3l-160 160c-12.5 12.5-32.8 12.5-45.3 0s-12.5-32.8 0-45.3L210.7 256 73.4 118.6c-12.5-12.5-12.5-32.8 0-45.3s32.8-12.5 45.3 0l160 160z"></path>
    </symbol>
    <symbol xmlns="http://www.w3.org/2000/svg" viewBox="0 0 448 512" id="angle-down">
        <path fill="currentColor" d="M201.4 374.6c12.5 12.5 32.8 12.5 45.3 0l160-160c12.5-12.5 12.5-32.8 0-45.3s-32.8-12.5-45.3 0L224 306.7 86.6 169.4c-12.5-12.5-32.8-12.5-45.3 0s-12.5 32.8 0 45.3l160 160z"></path>
    </symbol>
    <symbol xmlns="http://www.w3.org/2000/svg" viewBox="0 0 512 512" id="circle-xmark">
        <path fill="currentColor" d="M256 512c141.4 0 256-114.6 256-256S397.4 0 256 0S0 114.6 0 256S114.6 512 256 512zM175 175c9.4-9.4 24.6-9.4 33.9 0l47 47 47-47c9.4-9.4 24.6-9.4 33.9 0s9.4 24.6 0 33.9l-47 47 47 47c9.4 9.4 9.4 24.6 0 33.9s-24.6 9.4-33.9 0l-47-47-47 47c-9.4 9.4-24.6 9.4-33.9 0s-9.4-24.6 0-33.9l47-47-47-47c-9.4-9.4-9.4-24.6 0-33.9z"></path>
    </symbol>
    <symbol xmlns="http://www.w3.org/2000/svg" viewBox="0 0 512 512" id="circle-xmark2">
        <path fill="currentColor" d="M175 175C184.4 165.7 199.6 165.7 208.1 175L255.1 222.1L303 175C312.4 165.7 327.6 165.7 336.1 175C346.3 184.4 346.3 199.6 336.1 208.1L289.9 255.1L336.1 303C346.3 312.4 346.3 327.6 336.1 336.1C327.6 346.3 312.4 346.3 303 336.1L255.1 289.9L208.1 336.1C199.6 346.3 184.4 346.3 175 336.1C165.7 327.6 165.7 312.4 175 303L222.1 255.1L175 208.1C165.7 199.6 165.7 184.4 175 175V175zM512 256C512 397.4 397.4 512 256 512C114.6 512 0 397.4 0 256C0 114.6 114.6 0 256 0C397.4 0 512 114.6 512 256zM256 48C141.1 48 48 141.1 48 256C48 370.9 141.1 464 256 464C370.9 464 464 370.9 464 256C464 141.1 370.9 48 256 48z"></path>
    </symbol>
    <symbol xmlns="http://www.w3.org/2000/svg" viewBox="0 0 512 512" id="circle-check">
        <path fill="currentColor" d="M243.8 339.8C232.9 350.7 215.1 350.7 204.2 339.8L140.2 275.8C129.3 264.9 129.3 247.1 140.2 236.2C151.1 225.3 168.9 225.3 179.8 236.2L224 280.4L332.2 172.2C343.1 161.3 360.9 161.3 371.8 172.2C382.7 183.1 382.7 200.9 371.8 211.8L243.8 339.8zM512 256C512 397.4 397.4 512 256 512C114.6 512 0 397.4 0 256C0 114.6 114.6 0 256 0C397.4 0 512 114.6 512 256zM256 48C141.1 48 48 141.1 48 256C48 370.9 141.1 464 256 464C370.9 464 464 370.9 464 256C464 141.1 370.9 48 256 48z"></path>
    </symbol>
    <symbol xmlns="http://www.w3.org/2000/svg" viewBox="0 0 512 512" id="pen-to-square">
        <path fill="currentColor" d="M471.6 21.7c-21.9-21.9-57.3-21.9-79.2 0L362.3 51.7l97.9 97.9 30.1-30.1c21.9-21.9 21.9-57.3 0-79.2L471.6 21.7zm-299.2 220c-6.1 6.1-10.8 13.6-13.5 21.9l-29.6 88.8c-2.9 8.6-.6 18.1 5.8 24.6s15.9 8.7 24.6 5.8l88.8-29.6c8.2-2.8 15.7-7.4 21.9-13.5L437.7 172.3 339.7 74.3 172.4 241.7zM96 64C43 64 0 107 0 160V416c0 53 43 96 96 96H352c53 0 96-43 96-96V320c0-17.7-14.3-32-32-32s-32 14.3-32 32v96c0 17.7-14.3 32-32 32H96c-17.7 0-32-14.3-32-32V160c0-17.7 14.3-32 32-32h96c17.7 0 32-14.3 32-32s-14.3-32-32-32H96z"></path>
    </symbol>
    <symbol xmlns="http://www.w3.org/2000/svg" viewBox="0 0 512 512" id="phone-flip">
        <path fill="currentColor" d="M347.1 24.6c7.7-18.6 28-28.5 47.4-23.2l88 24C499.9 30.2 512 46 512 64c0 247.4-200.6 448-448 448c-18 0-33.8-12.1-38.6-29.5l-24-88c-5.3-19.4 4.6-39.7 23.2-47.4l96-40c16.3-6.8 35.2-2.1 46.3 11.6L207.3 368c70.4-33.3 127.4-90.3 160.7-160.7L318.7 167c-13.7-11.2-18.4-30-11.6-46.3l40-96z"></path>
    </symbol>
    <symbol xmlns="http://www.w3.org/2000/svg" viewBox="0 0 384 512" id="file-lines">
        <path fill="currentColor" d="M64 0C28.7 0 0 28.7 0 64V448c0 35.3 28.7 64 64 64H320c35.3 0 64-28.7 64-64V160H256c-17.7 0-32-14.3-32-32V0H64zM256 0V128H384L256 0zM112 256H272c8.8 0 16 7.2 16 16s-7.2 16-16 16H112c-8.8 0-16-7.2-16-16s7.2-16 16-16zm0 64H272c8.8 0 16 7.2 16 16s-7.2 16-16 16H112c-8.8 0-16-7.2-16-16s7.2-16 16-16zm0 64H272c8.8 0 16 7.2 16 16s-7.2 16-16 16H112c-8.8 0-16-7.2-16-16s7.2-16 16-16z"></path>
    </symbol>
    <symbol xmlns="http://www.w3.org/2000/svg" viewBox="0 0 448 512" id="square-plus">
        <path fill="currentColor" d="M64 32C28.7 32 0 60.7 0 96V416c0 35.3 28.7 64 64 64H384c35.3 0 64-28.7 64-64V96c0-35.3-28.7-64-64-64H64zM200 344V280H136c-13.3 0-24-10.7-24-24s10.7-24 24-24h64V168c0-13.3 10.7-24 24-24s24 10.7 24 24v64h64c13.3 0 24 10.7 24 24s-10.7 24-24 24H248v64c0 13.3-10.7 24-24 24s-24-10.7-24-24z"></path>
    </symbol>
    <symbol xmlns="http://www.w3.org/2000/svg" viewBox="0 0 512 512" id="repeat">
        <path fill="currentColor" d="M0 224c0 17.7 14.3 32 32 32s32-14.3 32-32c0-53 43-96 96-96H320v32c0 12.9 7.8 24.6 19.8 29.6s25.7 2.2 34.9-6.9l64-64c12.5-12.5 12.5-32.8 0-45.3l-64-64c-9.2-9.2-22.9-11.9-34.9-6.9S320 19.1 320 32V64H160C71.6 64 0 135.6 0 224zm512 64c0-17.7-14.3-32-32-32s-32 14.3-32 32c0 53-43 96-96 96H192V352c0-12.9-7.8-24.6-19.8-29.6s-25.7-2.2-34.9 6.9l-64 64c-12.5 12.5-12.5 32.8 0 45.3l64 64c9.2 9.2 22.9 11.9 34.9 6.9s19.8-16.6 19.8-29.6V448H352c88.4 0 160-71.6 160-160z"></path>
    </symbol>
    <symbol xmlns="http://www.w3.org/2000/svg" viewBox="0 0 512 512" id="print">
        <path fill="currentColor" d="M128 0C92.7 0 64 28.7 64 64v96h64V64H354.7L384 93.3V160h64V93.3c0-17-6.7-33.3-18.7-45.3L400 18.7C388 6.7 371.7 0 354.7 0H128zM384 352v32 64H128V384 368 352H384zm64 32h32c17.7 0 32-14.3 32-32V256c0-35.3-28.7-64-64-64H64c-35.3 0-64 28.7-64 64v96c0 17.7 14.3 32 32 32H64v64c0 35.3 28.7 64 64 64H384c35.3 0 64-28.7 64-64V384zm-16-88c-13.3 0-24-10.7-24-24s10.7-24 24-24s24 10.7 24 24s-10.7 24-24 24z"></path>
    </symbol>
    <symbol xmlns="http://www.w3.org/2000/svg" viewBox="0 0 576 512" id="home">
        <path fill="currentColor" d="M575.8 255.5c0 18-15 32.1-32 32.1h-32l.7 160.2c0 2.7-.2 5.4-.5 8.1V472c0 22.1-17.9 40-40 40H456c-1.1 0-2.2 0-3.3-.1c-1.4 .1-2.8 .1-4.2 .1H416 392c-22.1 0-40-17.9-40-40V448 384c0-17.7-14.3-32-32-32H256c-17.7 0-32 14.3-32 32v64 24c0 22.1-17.9 40-40 40H160 128.1c-1.5 0-3-.1-4.5-.2c-1.2 .1-2.4 .2-3.6 .2H104c-22.1 0-40-17.9-40-40V360c0-.9 0-1.9 .1-2.8V287.6H32c-18 0-32-14-32-32.1c0-9 3-17 10-24L266.4 8c7-7 15-8 22-8s15 2 21 7L564.8 231.5c8 7 12 15 11 24z"></path>
    </symbol>
    <symbol xmlns="http://www.w3.org/2000/svg" viewBox="0 0 32 32" id="plus">
      <path fill="currentColor" d="M 15 5 L 15 15 L 5 15 L 5 17 L 15 17 L 15 27 L 17 27 L 17 17 L 27 17 L 27 15 L 17 15 L 17 5 Z"></path>
    </symbol>
    <symbol xmlns="http://www.w3.org/2000/svg" viewBox="0 0 32 32" id="minus">
      <path fill="currentColor" d="M 5 15 L 5 17 L 27 17 L 27 15 Z"></path>
    </symbol>
    <symbol xmlns="http://www.w3.org/2000/svg" viewBox="0 0 512 512" id="filter">
    <path fill="currentColor" d="M3.9 54.9C10.5 40.9 24.5 32 40 32H472c15.5 0 29.5 8.9 36.1 22.9s4.6 30.5-5.2 42.5L320 320.9V448c0 12.1-6.8 23.2-17.7 28.6s-23.8 4.3-33.5-3l-64-48c-8.1-6-12.8-15.5-12.8-25.6V320.9L9 97.3C-.7 85.4-2.8 68.8 3.9 54.9z"></path>
  </symbol>
  <symbol xmlns="http://www.w3.org/2000/svg" viewBox="0 0 512 512" id="list">
    <path fill="currentColor" d="M40 48C26.7 48 16 58.7 16 72v48c0 13.3 10.7 24 24 24H88c13.3 0 24-10.7 24-24V72c0-13.3-10.7-24-24-24H40zM192 64c-17.7 0-32 14.3-32 32s14.3 32 32 32H480c17.7 0 32-14.3 32-32s-14.3-32-32-32H192zm0 160c-17.7 0-32 14.3-32 32s14.3 32 32 32H480c17.7 0 32-14.3 32-32s-14.3-32-32-32H192zm0 160c-17.7 0-32 14.3-32 32s14.3 32 32 32H480c17.7 0 32-14.3 32-32s-14.3-32-32-32H192zM16 232v48c0 13.3 10.7 24 24 24H88c13.3 0 24-10.7 24-24V232c0-13.3-10.7-24-24-24H40c-13.3 0-24 10.7-24 24zM40 368c-13.3 0-24 10.7-24 24v48c0 13.3 10.7 24 24 24H88c13.3 0 24-10.7 24-24V392c0-13.3-10.7-24-24-24H40z"></path>
  </symbol>
</svg>